<svg viewBox="0 0 1281 621" fill="none" xmlns="http://www.w3.org/2000/svg">
  <style>
    .text {
      stroke: #232946;
      stroke-linecap: round;
      stroke-linejoin: round;
      stroke-width: 1.5;
      stroke-dasharray: 1000;
      stroke-dashoffset: 100%;
      animation: text-border 5s ease-in forwards, text-color 1.5s 1.25s ease-out forwards;
    }

    .text--thin {
      stroke-width: 1;
    }

    .image {
      filter: url(#dropshadow);
      transform-origin: center;
      will-change: transform;
      animation: float 1.5s infinite ease-in-out alternate-reverse;
    }

    .image--window {
      z-index: 2;
      animation-duration: 1s;
      animation-delay: -1s;
    }

    @keyframes float {
      from {
        transform: translate3d(-2px, -5px, -10px);
      }

      to {
        transform: translate3d(0, 0, 0);
      }
    }

    @keyframes text-border {
      0% {
        stroke-dashoffset: 100%;
      }

      100% {
        stroke-dashoffset: 0;
      }
    }

    @keyframes text-color {
      100% {
        fill: #232946;
      }
    }
  </style>
  <g id="Card">
    <path id="background-outer" d="M0.620117 0.898438H1280.62V620.898H0.620117V0.898438Z" fill="#B8C1EC" />
    <path id="background-inner"
      d="M124.492 80.8984C124.492 69.8528 133.446 60.8984 144.492 60.8984H1136.75C1147.79 60.8984 1156.75 69.8527 1156.75 80.8984V540.898C1156.75 551.944 1147.79 560.898 1136.75 560.898H144.492C133.446 560.898 124.492 551.944 124.492 540.898V80.8984Z"
      fill="white" />
    <g id="demo">
      <g id="homie-05">
        <image class="image image--avatar" width="309.99" height="411.578" x="152.481" y="101.135"
          href="./homie-05.png" />
      </g>
      <g id="homie-objects-browser">
        <image width="228" height="229" x="862.613" y="287.873" class="image image--window"
          href="./homie-objects-browser.png" />
      </g>
    </g>
    <path id="Claudia Benito" class="text"
      d="M474.508 291.224C474.508 293.442 474.993 295.349 475.964 296.944C476.969 298.538 478.304 299.769 479.968 300.636C481.632 301.468 483.435 301.884 485.376 301.884C487.941 301.884 490.091 301.398 491.824 300.428C493.592 299.457 495.065 298.33 496.244 297.048V306.616C494.788 307.725 493.193 308.609 491.46 309.268C489.727 309.926 487.525 310.256 484.856 310.256C480.973 310.256 477.524 309.458 474.508 307.864C471.492 306.269 469.135 304.05 467.436 301.208C465.737 298.33 464.888 295.002 464.888 291.224C464.888 287.445 465.737 284.134 467.436 281.292C469.135 278.414 471.492 276.178 474.508 274.584C477.524 272.989 480.973 272.192 484.856 272.192C487.525 272.192 489.727 272.521 491.46 273.18C493.193 273.838 494.788 274.722 496.244 275.832V285.4C495.065 284.082 493.592 282.956 491.824 282.02C490.091 281.049 487.941 280.564 485.376 280.564C483.435 280.564 481.632 280.997 479.968 281.864C478.304 282.696 476.969 283.909 475.964 285.504C474.993 287.064 474.508 288.97 474.508 291.224ZM502.598 268.864H510.502V309.424H502.598V268.864ZM519.214 292.836L516.562 287.584C517.949 286.925 519.578 286.301 521.45 285.712C523.357 285.122 525.437 284.828 527.69 284.828C529.805 284.828 531.694 285.14 533.358 285.764C535.022 286.353 536.339 287.22 537.31 288.364C538.281 289.508 538.766 290.912 538.766 292.576V309.424H531.226V306.148C530.498 307.396 529.406 308.349 527.95 309.008C526.529 309.632 524.986 309.944 523.322 309.944C521.797 309.944 520.375 309.666 519.058 309.112C517.775 308.522 516.735 307.656 515.938 306.512C515.175 305.368 514.794 303.981 514.794 302.352C514.794 300.064 515.591 298.261 517.186 296.944C518.815 295.592 521.138 294.916 524.154 294.916C525.61 294.916 526.945 295.072 528.158 295.384C529.371 295.661 530.394 296.008 531.226 296.424V294.344C531.226 291.986 529.718 290.808 526.702 290.808C525.662 290.808 524.622 290.929 523.582 291.172C522.542 291.414 521.623 291.709 520.826 292.056C520.063 292.368 519.526 292.628 519.214 292.836ZM522.75 301.936C522.75 302.872 523.062 303.6 523.686 304.12C524.345 304.605 525.159 304.848 526.13 304.848C527.413 304.848 528.557 304.466 529.562 303.704C530.567 302.906 531.122 301.728 531.226 300.168C529.805 299.544 528.262 299.232 526.598 299.232C525.211 299.232 524.223 299.474 523.634 299.96C523.045 300.41 522.75 301.069 522.75 301.936ZM552.913 300.064C552.913 301.45 553.156 302.525 553.641 303.288C554.161 304.05 555.062 304.432 556.345 304.432C557.593 304.432 558.598 304.05 559.361 303.288C560.124 302.525 560.505 301.45 560.505 300.064V285.504H568.409V309.424H560.505V305.836C559.812 307.118 558.858 308.141 557.645 308.904C556.466 309.632 554.993 309.996 553.225 309.996C550.278 309.996 548.112 309.198 546.725 307.604C545.338 305.974 544.645 303.738 544.645 300.896V285.504H552.913V300.064ZM573.151 297.464C573.151 294.76 573.689 292.489 574.763 290.652C575.838 288.78 577.242 287.376 578.975 286.44C580.709 285.469 582.546 284.984 584.487 284.984C588.023 284.984 590.762 286.44 592.703 289.352V268.864H600.555V309.424H592.703V305.576C590.762 308.488 588.023 309.944 584.487 309.944C582.546 309.944 580.709 309.476 578.975 308.54C577.242 307.569 575.838 306.148 574.763 304.276C573.689 302.404 573.151 300.133 573.151 297.464ZM581.419 297.464C581.419 299.336 581.974 300.826 583.083 301.936C584.227 303.045 585.579 303.6 587.139 303.6C588.041 303.6 588.907 303.357 589.739 302.872C590.606 302.386 591.317 301.693 591.871 300.792C592.426 299.856 592.703 298.746 592.703 297.464C592.703 296.146 592.426 295.037 591.871 294.136C591.317 293.234 590.606 292.541 589.739 292.056C588.907 291.57 588.041 291.328 587.139 291.328C585.579 291.328 584.227 291.882 583.083 292.992C581.974 294.101 581.419 295.592 581.419 297.464ZM606.13 276.56C606.13 275.312 606.564 274.289 607.43 273.492C608.332 272.694 609.424 272.296 610.706 272.296C611.989 272.296 613.064 272.694 613.93 273.492C614.832 274.289 615.282 275.312 615.282 276.56C615.282 277.808 614.832 278.83 613.93 279.628C613.064 280.39 611.989 280.772 610.706 280.772C609.424 280.772 608.332 280.39 607.43 279.628C606.564 278.83 606.13 277.808 606.13 276.56ZM606.858 285.504H614.502V309.424H606.858V285.504ZM623.569 292.836L620.917 287.584C622.304 286.925 623.933 286.301 625.805 285.712C627.712 285.122 629.792 284.828 632.045 284.828C634.16 284.828 636.049 285.14 637.713 285.764C639.377 286.353 640.695 287.22 641.665 288.364C642.636 289.508 643.121 290.912 643.121 292.576V309.424H635.581V306.148C634.853 307.396 633.761 308.349 632.305 309.008C630.884 309.632 629.341 309.944 627.677 309.944C626.152 309.944 624.731 309.666 623.413 309.112C622.131 308.522 621.091 307.656 620.293 306.512C619.531 305.368 619.149 303.981 619.149 302.352C619.149 300.064 619.947 298.261 621.541 296.944C623.171 295.592 625.493 294.916 628.509 294.916C629.965 294.916 631.3 295.072 632.513 295.384C633.727 295.661 634.749 296.008 635.581 296.424V294.344C635.581 291.986 634.073 290.808 631.057 290.808C630.017 290.808 628.977 290.929 627.937 291.172C626.897 291.414 625.979 291.709 625.181 292.056C624.419 292.368 623.881 292.628 623.569 292.836ZM627.105 301.936C627.105 302.872 627.417 303.6 628.041 304.12C628.7 304.605 629.515 304.848 630.485 304.848C631.768 304.848 632.912 304.466 633.917 303.704C634.923 302.906 635.477 301.728 635.581 300.168C634.16 299.544 632.617 299.232 630.953 299.232C629.567 299.232 628.579 299.474 627.989 299.96C627.4 300.41 627.105 301.069 627.105 301.936ZM693.762 299.18C693.762 302.785 692.48 305.402 689.914 307.032C687.384 308.626 683.952 309.424 679.618 309.424H665.37V273.024H678.786C681.282 273.024 683.501 273.37 685.442 274.064C687.384 274.722 688.909 275.745 690.018 277.132C691.128 278.484 691.682 280.2 691.682 282.28C691.682 284.048 691.214 285.573 690.278 286.856C689.342 288.138 688.06 289.144 686.43 289.872C688.51 290.6 690.244 291.726 691.63 293.252C693.052 294.742 693.762 296.718 693.762 299.18ZM677.798 279.836H674.158V287.48H677.798C679.324 287.48 680.502 287.133 681.334 286.44C682.166 285.746 682.582 284.793 682.582 283.58C682.582 282.366 682.166 281.448 681.334 280.824C680.502 280.165 679.324 279.836 677.798 279.836ZM674.158 302.612H678.63C680.329 302.612 681.75 302.265 682.894 301.572C684.073 300.878 684.662 299.665 684.662 297.932C684.662 296.337 684.073 295.228 682.894 294.604C681.75 293.945 680.329 293.616 678.63 293.616H674.158V302.612ZM711.342 309.944C708.534 309.944 706.107 309.441 704.062 308.436C702.051 307.396 700.491 305.94 699.382 304.068C698.272 302.196 697.718 299.994 697.718 297.464C697.718 293.581 698.914 290.53 701.306 288.312C703.698 286.093 706.991 284.984 711.186 284.984C715.311 284.984 718.483 286.041 720.702 288.156C722.955 290.27 724.082 293.252 724.082 297.1C724.082 297.481 724.082 297.845 724.082 298.192C724.082 298.538 724.064 298.85 724.03 299.128H705.778C705.986 300.757 706.558 302.022 707.494 302.924C708.43 303.825 709.66 304.276 711.186 304.276C713.959 304.276 715.935 303.236 717.114 301.156L724.186 302.872C721.655 307.586 717.374 309.944 711.342 309.944ZM711.03 290.236C708.187 290.236 706.471 291.744 705.882 294.76H715.658C715.519 293.373 715.034 292.281 714.202 291.484C713.404 290.652 712.347 290.236 711.03 290.236ZM744.478 294.864C744.478 293.442 744.218 292.368 743.698 291.64C743.178 290.877 742.277 290.496 740.994 290.496C739.746 290.496 738.741 290.877 737.978 291.64C737.216 292.368 736.834 293.442 736.834 294.864V309.424H728.93V285.504H736.834V289.092C737.528 287.774 738.464 286.752 739.642 286.024C740.856 285.296 742.346 284.932 744.114 284.932C747.096 284.932 749.262 285.729 750.614 287.324C752.001 288.918 752.694 291.154 752.694 294.032V309.424H744.478V294.864ZM758.372 276.56C758.372 275.312 758.806 274.289 759.672 273.492C760.574 272.694 761.666 272.296 762.948 272.296C764.231 272.296 765.306 272.694 766.172 273.492C767.074 274.289 767.524 275.312 767.524 276.56C767.524 277.808 767.074 278.83 766.172 279.628C765.306 280.39 764.231 280.772 762.948 280.772C761.666 280.772 760.574 280.39 759.672 279.628C758.806 278.83 758.372 277.808 758.372 276.56ZM759.1 285.504H766.744V309.424H759.1V285.504ZM770.404 285.504H774.616V277.184H782.208V285.504H786.42V292.004H782.208V309.424H774.616V292.004H770.404V285.504ZM788.362 297.464C788.362 294.933 788.952 292.732 790.13 290.86C791.344 288.988 792.973 287.532 795.018 286.492C797.098 285.452 799.438 284.932 802.038 284.932C804.673 284.932 807.013 285.452 809.058 286.492C811.104 287.532 812.716 288.988 813.894 290.86C815.108 292.732 815.714 294.933 815.714 297.464C815.714 299.96 815.108 302.144 813.894 304.016C812.716 305.888 811.104 307.344 809.058 308.384C807.013 309.424 804.673 309.944 802.038 309.944C799.438 309.944 797.098 309.424 795.018 308.384C792.973 307.344 791.344 305.888 790.13 304.016C788.952 302.144 788.362 299.96 788.362 297.464ZM796.474 297.464C796.474 299.301 797.012 300.757 798.086 301.832C799.196 302.906 800.513 303.444 802.038 303.444C803.564 303.444 804.864 302.906 805.938 301.832C807.048 300.757 807.602 299.301 807.602 297.464C807.602 295.626 807.048 294.17 805.938 293.096C804.864 291.986 803.564 291.432 802.038 291.432C800.513 291.432 799.196 291.986 798.086 293.096C797.012 294.17 796.474 295.626 796.474 297.464Z"
      fill="#fff" />
    <path id="Front-end developer" class="text text--thin"
      d="M479.02 336.373H489.82V338.773H481.57V344.773H489.52V347.173H481.57V357.373H479.02V336.373ZM494.02 336.373H499.72C501.08 336.373 502.29 336.633 503.35 337.153C504.43 337.653 505.28 338.373 505.9 339.313C506.54 340.253 506.86 341.373 506.86 342.673C506.86 344.253 506.39 345.573 505.45 346.633C504.53 347.673 503.33 348.373 501.85 348.733L508.12 357.373H504.97L499.12 348.973H496.57V357.373H494.02V336.373ZM499.72 338.623H496.57V346.723H499.72C501.08 346.723 502.18 346.373 503.02 345.673C503.88 344.953 504.31 343.953 504.31 342.673C504.31 341.373 503.88 340.373 503.02 339.673C502.18 338.973 501.08 338.623 499.72 338.623ZM509.607 346.873C509.607 345.333 509.867 343.913 510.387 342.613C510.927 341.293 511.677 340.153 512.637 339.193C513.597 338.213 514.727 337.453 516.027 336.913C517.327 336.353 518.737 336.073 520.257 336.073C521.797 336.073 523.207 336.353 524.487 336.913C525.787 337.453 526.917 338.213 527.877 339.193C528.837 340.153 529.577 341.293 530.097 342.613C530.637 343.913 530.907 345.333 530.907 346.873C530.907 348.393 530.637 349.813 530.097 351.133C529.577 352.453 528.837 353.603 527.877 354.583C526.917 355.543 525.787 356.303 524.487 356.863C523.207 357.403 521.797 357.673 520.257 357.673C518.737 357.673 517.327 357.403 516.027 356.863C514.727 356.303 513.597 355.543 512.637 354.583C511.677 353.603 510.927 352.453 510.387 351.133C509.867 349.813 509.607 348.393 509.607 346.873ZM512.307 346.873C512.307 348.453 512.647 349.863 513.327 351.103C514.027 352.343 514.977 353.323 516.177 354.043C517.377 354.763 518.737 355.123 520.257 355.123C521.797 355.123 523.157 354.763 524.337 354.043C525.537 353.323 526.477 352.343 527.157 351.103C527.857 349.863 528.207 348.453 528.207 346.873C528.207 345.293 527.857 343.883 527.157 342.643C526.477 341.403 525.537 340.423 524.337 339.703C523.157 338.983 521.797 338.623 520.257 338.623C518.737 338.623 517.377 338.983 516.177 339.703C514.977 340.423 514.027 341.403 513.327 342.643C512.647 343.883 512.307 345.293 512.307 346.873ZM550.408 336.373H552.958V358.423L537.058 341.743V357.373H534.508V335.323L550.408 352.003V336.373ZM555.67 338.773V336.373H569.02V338.773H563.62V357.373H561.07V338.773H555.67ZM569.465 351.373V349.123H575.465V351.373H569.465ZM578.014 336.373H590.014V338.773H580.564V344.773H589.414V347.173H580.564V354.973H590.014V357.373H578.014V336.373ZM610.408 336.373H612.958V358.423L597.058 341.743V357.373H594.508V335.323L610.408 352.003V336.373ZM624.07 357.373H617.77V336.373H624.07C626.11 336.373 627.92 336.813 629.5 337.693C631.08 338.573 632.32 339.803 633.22 341.383C634.12 342.943 634.57 344.773 634.57 346.873C634.57 348.973 634.12 350.813 633.22 352.393C632.32 353.953 631.08 355.173 629.5 356.053C627.92 356.933 626.11 357.373 624.07 357.373ZM624.07 338.923H620.32V354.823H624.07C625.65 354.823 627.03 354.503 628.21 353.863C629.41 353.203 630.34 352.283 631 351.103C631.68 349.903 632.02 348.493 632.02 346.873C632.02 345.233 631.68 343.823 631 342.643C630.34 341.463 629.41 340.553 628.21 339.913C627.03 339.253 625.65 338.923 624.07 338.923ZM653.455 357.373H647.155V336.373H653.455C655.495 336.373 657.305 336.813 658.885 337.693C660.465 338.573 661.705 339.803 662.605 341.383C663.505 342.943 663.955 344.773 663.955 346.873C663.955 348.973 663.505 350.813 662.605 352.393C661.705 353.953 660.465 355.173 658.885 356.053C657.305 356.933 655.495 357.373 653.455 357.373ZM653.455 338.923H649.705V354.823H653.455C655.035 354.823 656.415 354.503 657.595 353.863C658.795 353.203 659.725 352.283 660.385 351.103C661.065 349.903 661.405 348.493 661.405 346.873C661.405 345.233 661.065 343.823 660.385 342.643C659.725 341.463 658.795 340.553 657.595 339.913C656.415 339.253 655.035 338.923 653.455 338.923ZM667.546 336.373H679.546V338.773H670.096V344.773H678.946V347.173H670.096V354.973H679.546V357.373H667.546V336.373ZM691.54 352.633L698.44 336.373H701.29L691.54 358.423L681.79 336.373H684.64L691.54 352.633ZM703.844 336.373H715.844V338.773H706.394V344.773H715.244V347.173H706.394V354.973H715.844V357.373H703.844V336.373ZM720.338 336.373H722.888V354.973H731.138V357.373H720.338V336.373ZM731.736 346.873C731.736 345.333 731.996 343.913 732.516 342.613C733.056 341.293 733.806 340.153 734.766 339.193C735.726 338.213 736.856 337.453 738.156 336.913C739.456 336.353 740.866 336.073 742.386 336.073C743.926 336.073 745.336 336.353 746.616 336.913C747.916 337.453 749.046 338.213 750.006 339.193C750.966 340.153 751.706 341.293 752.226 342.613C752.766 343.913 753.036 345.333 753.036 346.873C753.036 348.393 752.766 349.813 752.226 351.133C751.706 352.453 750.966 353.603 750.006 354.583C749.046 355.543 747.916 356.303 746.616 356.863C745.336 357.403 743.926 357.673 742.386 357.673C740.866 357.673 739.456 357.403 738.156 356.863C736.856 356.303 735.726 355.543 734.766 354.583C733.806 353.603 733.056 352.453 732.516 351.133C731.996 349.813 731.736 348.393 731.736 346.873ZM734.436 346.873C734.436 348.453 734.776 349.863 735.456 351.103C736.156 352.343 737.106 353.323 738.306 354.043C739.506 354.763 740.866 355.123 742.386 355.123C743.926 355.123 745.286 354.763 746.466 354.043C747.666 353.323 748.606 352.343 749.286 351.103C749.986 349.863 750.336 348.453 750.336 346.873C750.336 345.293 749.986 343.883 749.286 342.643C748.606 341.403 747.666 340.423 746.466 339.703C745.286 338.983 743.926 338.623 742.386 338.623C740.866 338.623 739.506 338.983 738.306 339.703C737.106 340.423 736.156 341.403 735.456 342.643C734.776 343.883 734.436 345.293 734.436 346.873ZM756.637 336.373H762.337C763.697 336.373 764.907 336.633 765.967 337.153C767.047 337.653 767.897 338.373 768.517 339.313C769.157 340.253 769.477 341.373 769.477 342.673C769.477 343.953 769.157 345.073 768.517 346.033C767.897 346.973 767.047 347.703 765.967 348.223C764.907 348.723 763.697 348.973 762.337 348.973H759.187V357.373H756.637V336.373ZM762.337 338.773H759.187V346.573H762.337C763.697 346.573 764.797 346.243 765.637 345.583C766.497 344.923 766.927 343.953 766.927 342.673C766.927 341.373 766.497 340.403 765.637 339.763C764.797 339.103 763.697 338.773 762.337 338.773ZM773.073 336.373H785.073V338.773H775.623V344.773H784.473V347.173H775.623V354.973H785.073V357.373H773.073V336.373ZM789.567 336.373H795.267C796.627 336.373 797.837 336.633 798.897 337.153C799.977 337.653 800.827 338.373 801.447 339.313C802.087 340.253 802.407 341.373 802.407 342.673C802.407 344.253 801.937 345.573 800.997 346.633C800.077 347.673 798.877 348.373 797.397 348.733L803.667 357.373H800.517L794.667 348.973H792.117V357.373H789.567V336.373ZM795.267 338.623H792.117V346.723H795.267C796.627 346.723 797.727 346.373 798.567 345.673C799.427 344.953 799.857 343.953 799.857 342.673C799.857 341.373 799.427 340.373 798.567 339.673C797.727 338.973 796.627 338.623 795.267 338.623Z"
      fill="#fff" />
  </g>
  <defs>
    <filter id="dropshadow" color-interpolation-filters="sRGB">
      <feDropShadow dx="10" dy="40" stdDeviation="15" flood-opacity="0.1" />
    </filter>
  </defs>
</svg>